<svg width="40" height="41" viewBox="0 0 40 41" fill="none" xmlns="http://www.w3.org/2000/svg">
<path d="M34.9167 14.2808C34.8999 13.0185 34.6636 11.7688 34.2183 10.5875C33.8322 9.59106 33.2426 8.68613 32.4869 7.93052C31.7313 7.17491 30.8264 6.58522 29.83 6.19914C28.6639 5.7614 27.432 5.52471 26.1867 5.49914C24.5833 5.42747 24.075 5.40747 20.005 5.40747C15.935 5.40747 15.4133 5.40747 13.8217 5.49914C12.5769 5.52489 11.3456 5.76158 10.18 6.19914C9.18343 6.58495 8.27837 7.17454 7.52272 7.93019C6.76707 8.68584 6.17748 9.5909 5.79167 10.5875C5.35305 11.7527 5.11687 12.9843 5.09333 14.2291C5.02167 15.8341 5 16.3425 5 20.4125C5 24.4825 5 25.0025 5.09333 26.5958C5.11833 27.8425 5.35333 29.0725 5.79167 30.2408C6.17813 31.2371 6.76816 32.1418 7.52406 32.8971C8.27996 33.6524 9.18511 34.2418 10.1817 34.6275C11.3441 35.0828 12.5756 35.3364 13.8233 35.3775C15.4283 35.4491 15.9367 35.4708 20.0067 35.4708C24.0767 35.4708 24.5983 35.4708 26.19 35.3775C27.4353 35.3529 28.6673 35.1168 29.8333 34.6791C30.8295 34.2926 31.7342 33.7028 32.4897 32.9472C33.2453 32.1917 33.8351 31.287 34.2217 30.2908C34.66 29.1241 34.895 27.8941 34.92 26.6458C34.9917 25.0425 35.0133 24.5341 35.0133 20.4625C35.01 16.3925 35.01 15.8758 34.9167 14.2808ZM19.995 28.1091C15.7383 28.1091 12.29 24.6608 12.29 20.4041C12.29 16.1475 15.7383 12.6991 19.995 12.6991C22.0385 12.6991 23.9983 13.5109 25.4433 14.9559C26.8882 16.4008 27.7 18.3606 27.7 20.4041C27.7 22.4476 26.8882 24.4074 25.4433 25.8524C23.9983 27.2974 22.0385 28.1091 19.995 28.1091ZM28.0067 14.2108C27.7707 14.211 27.5369 14.1647 27.3189 14.0745C27.1008 13.9843 26.9026 13.8519 26.7357 13.6851C26.5689 13.5182 26.4365 13.32 26.3463 13.102C26.2561 12.8839 26.2098 12.6501 26.21 12.4141C26.21 12.1783 26.2565 11.9448 26.3467 11.7269C26.4369 11.509 26.5692 11.311 26.736 11.1443C26.9027 10.9775 27.1007 10.8453 27.3186 10.755C27.5365 10.6648 27.77 10.6183 28.0058 10.6183C28.2417 10.6183 28.4752 10.6648 28.6931 10.755C28.9109 10.8453 29.1089 10.9775 29.2757 11.1443C29.4424 11.311 29.5747 11.509 29.665 11.7269C29.7552 11.9448 29.8017 12.1783 29.8017 12.4141C29.8017 13.4075 28.9983 14.2108 28.0067 14.2108Z" fill="#F6F8FF"/>
<path d="M19.9952 25.4077C22.7594 25.4077 25.0002 23.1669 25.0002 20.4027C25.0002 17.6385 22.7594 15.3977 19.9952 15.3977C17.231 15.3977 14.9902 17.6385 14.9902 20.4027C14.9902 23.1669 17.231 25.4077 19.9952 25.4077Z" fill="#F6F8FF"/>
</svg>
