<svg width="24" height="24" viewBox="0 0 24 24" fill="none" xmlns="http://www.w3.org/2000/svg">
<circle cx="12" cy="12" r="12" fill="white"/>
<path d="M15 5.8833C13.84 5.8833 12.7266 6.4233 12 7.27663C11.2733 6.4233 10.16 5.8833 8.99998 5.8833C6.94665 5.8833 5.33331 7.49663 5.33331 9.54997C5.33331 12.07 7.59998 14.1233 11.0333 17.2433L12 18.1166L12.9666 17.2366C16.4 14.1233 18.6666 12.07 18.6666 9.54997C18.6666 7.49663 17.0533 5.8833 15 5.8833ZM12.0666 16.25L12 16.3166L11.9333 16.25C8.75998 13.3766 6.66665 11.4766 6.66665 9.54997C6.66665 8.21663 7.66665 7.21663 8.99998 7.21663C10.0266 7.21663 11.0266 7.87663 11.38 8.78997H12.6266C12.9733 7.87663 13.9733 7.21663 15 7.21663C16.3333 7.21663 17.3333 8.21663 17.3333 9.54997C17.3333 11.4766 15.24 13.3766 12.0666 16.25Z" fill="black"/>
</svg>
