<svg width="40" height="41" viewBox="0 0 40 41" fill="none" xmlns="http://www.w3.org/2000/svg">
<g clip-path="url(#clip0_764_1082)">
<path fill-rule="evenodd" clip-rule="evenodd" d="M1.66669 3.08018C1.66669 2.26774 1.98943 1.48857 2.56392 0.914079C3.1384 0.339593 3.91757 0.0168498 4.73002 0.0168498H35.2667C35.6693 0.0161922 36.0681 0.0949546 36.4403 0.248628C36.8124 0.402301 37.1506 0.627866 37.4354 0.91241C37.7203 1.19695 37.9462 1.53489 38.1003 1.90687C38.2544 2.27884 38.3336 2.67756 38.3334 3.08018V33.6169C38.3338 34.0196 38.2548 34.4184 38.101 34.7905C37.9471 35.1627 37.7214 35.5009 37.4367 35.7857C37.152 36.0705 36.814 36.2964 36.4419 36.4505C36.0699 36.6046 35.6711 36.6837 35.2684 36.6835H4.73002C4.3276 36.6835 3.92912 36.6042 3.55735 36.4502C3.18558 36.2961 2.84781 36.0703 2.56333 35.7857C2.27885 35.5011 2.05324 35.1632 1.89939 34.7913C1.74554 34.4195 1.66647 34.0209 1.66669 33.6185V3.08018ZM16.18 13.9969H21.145V16.4902C21.8617 15.0569 23.695 13.7669 26.45 13.7669C31.7317 13.7669 32.9834 16.6219 32.9834 21.8602V31.5635H27.6384V23.0535C27.6384 20.0702 26.9217 18.3869 25.1017 18.3869C22.5767 18.3869 21.5267 20.2019 21.5267 23.0535V31.5635H16.18V13.9969ZM7.01335 31.3352H12.36V13.7669H7.01335V31.3335V31.3352ZM13.125 8.03685C13.1351 8.49464 13.0536 8.94983 12.8854 9.37571C12.7172 9.80159 12.4656 10.1896 12.1454 10.5169C11.8252 10.8442 11.4429 11.1043 11.0208 11.2819C10.5987 11.4594 10.1454 11.5509 9.68752 11.5509C9.22962 11.5509 8.77634 11.4594 8.35426 11.2819C7.93219 11.1043 7.54983 10.8442 7.22964 10.5169C6.90944 10.1896 6.65784 9.80159 6.48962 9.37571C6.3214 8.94983 6.23994 8.49464 6.25002 8.03685C6.26981 7.13827 6.64066 6.28317 7.28316 5.65466C7.92566 5.02615 8.78873 4.67421 9.68752 4.67421C10.5863 4.67421 11.4494 5.02615 12.0919 5.65466C12.7344 6.28317 13.1052 7.13827 13.125 8.03685Z" fill="#F6F8FF"/>
</g>
<defs>
<clipPath id="clip0_764_1082">
<rect width="40" height="40" fill="white" transform="translate(0 0.0168457)"/>
</clipPath>
</defs>
</svg>
