<svg width="33" height="33" viewBox="0 0 33 33" fill="none" xmlns="http://www.w3.org/2000/svg">
<path d="M2.10693 23.8288C-1.32964 18.2934 -0.651908 9.65851 4.8019 4.63582C6.90075 8.28352 8.99694 11.9286 11.1259 15.6295L15.6803 12.8671L9.20452 1.59134C14.7932 -1.42032 24.285 -0.486219 29.3795 7.24741L2.10693 23.8288Z" fill="white"/>
<path d="M18.8636 18.3992L29.9611 8.1897C31.7459 11.3983 32.3562 14.7701 31.8302 18.3193C31.1578 22.8666 28.862 26.4486 25.0768 29.2004L18.8636 18.3992Z" fill="white"/>
<path d="M14.844 22.0991C16.6457 25.2341 18.4065 28.299 20.1665 31.3665C17.2108 32.871 9.73084 31.6468 7.09796 29.226L14.844 22.0991Z" fill="white"/>
</svg>
