<svg width="32" height="32" viewBox="0 0 32 32" fill="none" xmlns="http://www.w3.org/2000/svg">
<path d="M16 29C17.4667 29 18.6667 27.8 18.6667 26.3333H13.3333C13.3333 27.8 14.5333 29 16 29ZM24 21V14.3333C24 10.24 21.8267 6.81333 18 5.90667V5C18 3.89333 17.1067 3 16 3C14.8933 3 14 3.89333 14 5V5.90667C10.1867 6.81333 8.00001 10.2267 8.00001 14.3333V21L5.33334 23.6667V25H26.6667V23.6667L24 21ZM21.3333 22.3333H10.6667V14.3333C10.6667 11.0267 12.68 8.33333 16 8.33333C19.32 8.33333 21.3333 11.0267 21.3333 14.3333V22.3333Z" fill="white"/>
</svg>
