<svg width="24" height="20" viewBox="0 0 24 20" fill="none" xmlns="http://www.w3.org/2000/svg">
<g opacity="0.8">
<path opacity="0.7" d="M15.755 11.8791H14.965L14.685 11.6541C15.665 10.7041 16.255 9.47074 16.255 8.12907C16.255 5.1374 13.345 2.7124 9.755 2.7124C6.165 2.7124 3.255 5.1374 3.255 8.12907C3.255 11.1207 6.165 13.5457 9.755 13.5457C11.365 13.5457 12.845 13.0541 13.985 12.2374L14.255 12.4707V13.1291L19.255 17.2874L20.745 16.0457L15.755 11.8791ZM9.755 11.8791C7.265 11.8791 5.255 10.2041 5.255 8.12907C5.255 6.05407 7.265 4.37907 9.755 4.37907C12.245 4.37907 14.255 6.05407 14.255 8.12907C14.255 10.2041 12.245 11.8791 9.755 11.8791Z" fill="#101429"/>
</g>
</svg>
