<svg width="32" height="32" viewBox="0 0 32 32" fill="none" xmlns="http://www.w3.org/2000/svg">
<path d="M22.0617 17.3334C23.0617 17.3334 23.9417 16.7867 24.3951 15.9601L29.1684 7.30675C29.6617 6.42675 29.0217 5.33341 28.0084 5.33341H8.27508L7.02174 2.66675H2.66174V5.33341H5.32841L10.1284 15.4534L8.32841 18.7067C7.35508 20.4934 8.63508 22.6667 10.6617 22.6667H26.6617V20.0001H10.6617L12.1284 17.3334H22.0617ZM9.54174 8.00008H25.7417L22.0617 14.6667H12.7017L9.54174 8.00008ZM10.6617 24.0001C9.19508 24.0001 8.00841 25.2001 8.00841 26.6667C8.00841 28.1334 9.19508 29.3334 10.6617 29.3334C12.1284 29.3334 13.3284 28.1334 13.3284 26.6667C13.3284 25.2001 12.1284 24.0001 10.6617 24.0001ZM23.9951 24.0001C22.5284 24.0001 21.3417 25.2001 21.3417 26.6667C21.3417 28.1334 22.5284 29.3334 23.9951 29.3334C25.4617 29.3334 26.6617 28.1334 26.6617 26.6667C26.6617 25.2001 25.4617 24.0001 23.9951 24.0001Z" fill="white"/>
</svg>
