<svg width="40" height="41" viewBox="0 0 40 41" fill="none" xmlns="http://www.w3.org/2000/svg">
<path d="M39.4099 6.99929C38.0182 7.61596 36.5232 8.03263 34.9516 8.22096C36.5732 7.25062 37.7865 5.72341 38.3649 3.9243C36.8413 4.82928 35.1738 5.46629 33.4349 5.80763C32.2655 4.55907 30.7167 3.73151 29.0288 3.45342C27.3409 3.17533 25.6084 3.46228 24.1003 4.26972C22.5922 5.07715 21.3929 6.3599 20.6885 7.9188C19.9841 9.4777 19.8141 11.2255 20.2049 12.891C17.1177 12.736 14.0976 11.9335 11.3406 10.5358C8.58359 9.13806 6.15129 7.17623 4.20156 4.77763C3.53489 5.92763 3.15156 7.26096 3.15156 8.68096C3.15082 9.95929 3.46561 11.218 4.06802 12.3455C4.67043 13.473 5.54183 14.4344 6.60489 15.1443C5.37202 15.1051 4.16635 14.7719 3.08823 14.1726V14.2726C3.0881 16.0655 3.70828 17.8033 4.84353 19.191C5.97878 20.5787 7.55918 21.5308 9.31656 21.886C8.17286 22.1955 6.97379 22.2411 5.80989 22.0193C6.30572 23.562 7.27155 24.911 8.57217 25.8775C9.87279 26.844 11.4431 27.3796 13.0632 27.4093C10.3129 29.5683 6.91637 30.7394 3.41989 30.7343C2.80053 30.7345 2.18169 30.6983 1.56656 30.626C5.11569 32.9079 9.24713 34.119 13.4666 34.1143C27.7499 34.1143 35.5582 22.2843 35.5582 12.0243C35.5582 11.691 35.5499 11.3543 35.5349 11.021C37.0537 9.92259 38.3647 8.56245 39.4066 7.0043L39.4099 6.99929Z" fill="#F6F8FF"/>
</svg>
