<svg width="22" height="22" viewBox="0 0 22 22" fill="none" xmlns="http://www.w3.org/2000/svg">
<path d="M11 2.86659C12.5467 2.86659 13.8 4.11992 13.8 5.66658C13.8 7.21325 12.5467 8.46659 11 8.46659C9.45334 8.46659 8.20001 7.21325 8.20001 5.66658C8.20001 4.11992 9.45334 2.86659 11 2.86659ZM11 14.8666C14.96 14.8666 19.1333 16.8133 19.1333 17.6666V19.1333H2.86668V17.6666C2.86668 16.8133 7.04001 14.8666 11 14.8666ZM11 0.333252C8.05334 0.333252 5.66668 2.71992 5.66668 5.66658C5.66668 8.61325 8.05334 10.9999 11 10.9999C13.9467 10.9999 16.3333 8.61325 16.3333 5.66658C16.3333 2.71992 13.9467 0.333252 11 0.333252ZM11 12.3333C7.44001 12.3333 0.333344 14.1199 0.333344 17.6666V21.6666H21.6667V17.6666C21.6667 14.1199 14.56 12.3333 11 12.3333Z" fill="white"/>
</svg>
